<svg width="19" height="16" viewBox="0 0 19 16" fill="none" xmlns="http://www.w3.org/2000/svg">
<path d="M18.3061 2.7174C17.8417 3.33692 17.2803 3.87733 16.6436 4.31776C16.6436 4.47959 16.6436 4.64142 16.6436 4.81225C16.6487 7.7511 15.4748 10.5691 13.3851 12.6345C11.2953 14.6999 8.46451 15.8399 5.52736 15.7989C3.8293 15.8046 2.15299 15.4169 0.629735 14.6661C0.547595 14.6302 0.494625 14.549 0.494935 14.4593V14.3604C0.494935 14.2313 0.599545 14.1267 0.728585 14.1267C2.39774 14.0716 4.00733 13.4929 5.32965 12.4724C3.81884 12.4419 2.4595 11.5469 1.83391 10.1707C1.80232 10.0956 1.81215 10.0093 1.85988 9.9432C1.9076 9.8771 1.98632 9.8407 2.06757 9.8471C2.52674 9.8932 2.9905 9.8505 3.43352 9.7212C1.76571 9.375 0.512525 7.9904 0.333175 6.2957C0.326805 6.2144 0.363235 6.1357 0.429315 6.0879C0.495385 6.0402 0.581555 6.0303 0.656695 6.062C1.10426 6.2595 1.5874 6.3635 2.07655 6.3676C0.615155 5.40846 -0.0160751 3.58405 0.539865 1.92622C0.597255 1.76513 0.735125 1.64612 0.902815 1.61294C1.0705 1.57975 1.24328 1.63728 1.35764 1.76439C3.32971 3.86325 6.03935 5.11396 8.91521 5.25279C8.84161 4.95885 8.80542 4.65676 8.80742 4.35372C8.83432 2.76472 9.81751 1.34921 11.2967 0.769872C12.7758 0.190542 14.4582 0.562032 15.5563 1.71044C16.3047 1.56785 17.0283 1.31645 17.704 0.964212C17.7535 0.933312 17.8163 0.933312 17.8658 0.964212C17.8967 1.01373 17.8967 1.07652 17.8658 1.12604C17.5385 1.87552 16.9856 2.50412 16.2842 2.92419C16.8984 2.85296 17.5018 2.70807 18.0815 2.49264C18.1303 2.45942 18.1944 2.45942 18.2432 2.49264C18.2841 2.51134 18.3147 2.54711 18.3268 2.59042C18.3389 2.63373 18.3313 2.68018 18.3061 2.7174Z" fill="black"/>
</svg>
